<svg xmlns="http://www.w3.org/2000/svg" viewBox="0 0 480 270" width="480" height="270"><rect width="100%" height="100%" fill="#FFFFFF"/><rect x="1.5" y="1.5" width="477" height="267" rx="18" fill="#FFFFFF" stroke="#DCE2EA" stroke-width="2"/><rect x="38.4" y="32.9" width="354.8" height="6.0" fill="#D3D8DF" rx="3"/><rect x="38.4" y="39.4" width="290.3" height="4.0" fill="#D3D8DF" rx="3"/><rect x="38.4" y="60.9" width="354.8" height="6.0" fill="#D3D8DF" rx="3"/><rect x="38.4" y="65.4" width="290.3" height="4.0" fill="#D3D8DF" rx="3"/><rect x="38.4" y="91.8" width="86.4" height="43.2" fill="#F8FAFC" stroke="#D7DDE5" stroke-width="1" rx="10"/><circle cx="56.4" cy="109.8" r="6" fill="#D0D6DE"/><rect x="70.4" y="104.6" width="39.1" height="6.0" fill="#D3D8DF" rx="3"/><rect x="70.4" y="109.9" width="32.0" height="4.0" fill="#D3D8DF" rx="3"/><rect x="52.4" y="115.2" width="51.4" height="4.0" fill="#D3D8DF" rx="3"/><rect x="52.4" y="118.1" width="42.0" height="4.0" fill="#D3D8DF" rx="3"/><rect x="134.4" y="91.8" width="86.4" height="43.2" fill="#F8FAFC" stroke="#D7DDE5" stroke-width="1" rx="10"/><circle cx="152.4" cy="109.8" r="6" fill="#D0D6DE"/><rect x="166.4" y="104.6" width="39.1" height="6.0" fill="#D3D8DF" rx="3"/><rect x="166.4" y="109.9" width="32.0" height="4.0" fill="#D3D8DF" rx="3"/><rect x="148.4" y="115.2" width="51.4" height="4.0" fill="#D3D8DF" rx="3"/><rect x="148.4" y="118.1" width="42.0" height="4.0" fill="#D3D8DF" rx="3"/><rect x="230.4" y="91.8" width="86.4" height="43.2" fill="#F8FAFC" stroke="#D7DDE5" stroke-width="1" rx="10"/><circle cx="248.4" cy="109.8" r="6" fill="#D0D6DE"/><rect x="262.4" y="104.6" width="39.1" height="6.0" fill="#D3D8DF" rx="3"/><rect x="262.4" y="109.9" width="32.0" height="4.0" fill="#D3D8DF" rx="3"/><rect x="244.4" y="115.2" width="51.4" height="4.0" fill="#D3D8DF" rx="3"/><rect x="244.4" y="118.1" width="42.0" height="4.0" fill="#D3D8DF" rx="3"/><rect x="326.4" y="91.8" width="86.4" height="43.2" fill="#F8FAFC" stroke="#D7DDE5" stroke-width="1" rx="10"/><circle cx="344.4" cy="109.8" r="6" fill="#D0D6DE"/><rect x="358.4" y="104.6" width="39.1" height="6.0" fill="#D3D8DF" rx="3"/><rect x="358.4" y="109.9" width="32.0" height="4.0" fill="#D3D8DF" rx="3"/><rect x="340.4" y="115.2" width="51.4" height="4.0" fill="#D3D8DF" rx="3"/><rect x="340.4" y="118.1" width="42.0" height="4.0" fill="#D3D8DF" rx="3"/><rect x="38.4" y="151.2" width="86.4" height="43.2" fill="#F8FAFC" stroke="#D7DDE5" stroke-width="1" rx="10"/><circle cx="56.4" cy="169.2" r="6" fill="#D0D6DE"/><rect x="70.4" y="164.0" width="39.1" height="6.0" fill="#D3D8DF" rx="3"/><rect x="70.4" y="169.3" width="32.0" height="4.0" fill="#D3D8DF" rx="3"/><rect x="52.4" y="174.6" width="51.4" height="4.0" fill="#D3D8DF" rx="3"/><rect x="52.4" y="177.5" width="42.0" height="4.0" fill="#D3D8DF" rx="3"/><rect x="134.4" y="151.2" width="86.4" height="43.2" fill="#F8FAFC" stroke="#D7DDE5" stroke-width="1" rx="10"/><circle cx="152.4" cy="169.2" r="6" fill="#D0D6DE"/><rect x="166.4" y="164.0" width="39.1" height="6.0" fill="#D3D8DF" rx="3"/><rect x="166.4" y="169.3" width="32.0" height="4.0" fill="#D3D8DF" rx="3"/><rect x="148.4" y="174.6" width="51.4" height="4.0" fill="#D3D8DF" rx="3"/><rect x="148.4" y="177.5" width="42.0" height="4.0" fill="#D3D8DF" rx="3"/><rect x="230.4" y="151.2" width="86.4" height="43.2" fill="#F8FAFC" stroke="#D7DDE5" stroke-width="1" rx="10"/><circle cx="248.4" cy="169.2" r="6" fill="#D0D6DE"/><rect x="262.4" y="164.0" width="39.1" height="6.0" fill="#D3D8DF" rx="3"/><rect x="262.4" y="169.3" width="32.0" height="4.0" fill="#D3D8DF" rx="3"/><rect x="244.4" y="174.6" width="51.4" height="4.0" fill="#D3D8DF" rx="3"/><rect x="244.4" y="177.5" width="42.0" height="4.0" fill="#D3D8DF" rx="3"/><rect x="326.4" y="151.2" width="86.4" height="43.2" fill="#F8FAFC" stroke="#D7DDE5" stroke-width="1" rx="10"/><circle cx="344.4" cy="169.2" r="6" fill="#D0D6DE"/><rect x="358.4" y="164.0" width="39.1" height="6.0" fill="#D3D8DF" rx="3"/><rect x="358.4" y="169.3" width="32.0" height="4.0" fill="#D3D8DF" rx="3"/><rect x="340.4" y="174.6" width="51.4" height="4.0" fill="#D3D8DF" rx="3"/><rect x="340.4" y="177.5" width="42.0" height="4.0" fill="#D3D8DF" rx="3"/></svg>