<svg xmlns="http://www.w3.org/2000/svg" viewBox="0 0 480 270" width="480" height="270">
  <rect width="480" height="270" fill="#FFFFFF"/>
  <rect x="1.5" y="1.5" width="477" height="267" rx="18" fill="#FFFFFF" stroke="#DCE2EA" stroke-width="2"/>

  <!-- Framed photo left — white border (x=19,y=8) then photo inner (x=24,y=13,w=220,h=244) -->
  <rect x="24" y="13" width="220" height="244" fill="#EEF2F6"/>
  <line x1="24" y1="13" x2="244" y2="257" stroke="#D3DAE4" stroke-width="1.2"/>
  <line x1="244" y1="13" x2="24" y2="257" stroke="#D3DAE4" stroke-width="1.2"/>

  <!-- Overlay title block right (x=264, y=73, w=192, h=76) -->
  <rect x="264" y="73" width="192" height="76" fill="#2D3A4A" rx="3" opacity="0.78"/>
  <!-- Title text in overlay -->
  <rect x="275" y="87" width="162" height="11" fill="#FFFFFF" rx="2" opacity="0.92"/>
  <rect x="275" y="104" width="140" height="11" fill="#FFFFFF" rx="2" opacity="0.92"/>
  <rect x="275" y="120" width="110" height="8" fill="#FFFFFF" rx="1.5" opacity="0.65"/>

  <!-- Body text below overlay -->
  <rect x="264" y="166" width="170" height="6" fill="#D2D9E3" rx="3"/>
  <rect x="264" y="177" width="155" height="6" fill="#D2D9E3" rx="3"/>
  <rect x="264" y="188" width="148" height="6" fill="#D2D9E3" rx="3"/>
  <rect x="264" y="199" width="120" height="6" fill="#D2D9E3" rx="3"/>
</svg>
