<svg xmlns="http://www.w3.org/2000/svg" viewBox="0 0 480 270" width="480" height="270"><rect width="100%" height="100%" fill="#FFFFFF"/><rect x="1.5" y="1.5" width="477" height="267" rx="18" fill="#FFFFFF" stroke="#DCE2EA" stroke-width="2"/><rect x="24.0" y="16.1" width="380.2" height="6.0" fill="#D3D8DF" rx="3"/><rect x="24.0" y="22.0" width="311.0" height="4.0" fill="#D3D8DF" rx="3"/><rect x="192.0" y="75.6" width="96.0" height="29.7" fill="#F8FAFC" stroke="#D7DDE5" stroke-width="1" rx="10"/><circle cx="210.0" cy="93.6" r="6" fill="#D0D6DE"/><rect x="224.0" y="88.4" width="47.5" height="6.0" fill="#D3D8DF" rx="3"/><rect x="224.0" y="93.7" width="38.9" height="4.0" fill="#D3D8DF" rx="3"/><rect x="206.0" y="91.7" width="59.8" height="4.0" fill="#D3D8DF" rx="3"/><rect x="206.0" y="93.7" width="49.0" height="4.0" fill="#D3D8DF" rx="3"/><rect x="163.2" y="108.0" width="153.6" height="29.7" fill="#F8FAFC" stroke="#D7DDE5" stroke-width="1" rx="10"/><circle cx="181.2" cy="126.0" r="6" fill="#D0D6DE"/><rect x="195.2" y="120.8" width="98.2" height="6.0" fill="#D3D8DF" rx="3"/><rect x="195.2" y="126.1" width="80.4" height="4.0" fill="#D3D8DF" rx="3"/><rect x="177.2" y="124.1" width="110.5" height="4.0" fill="#D3D8DF" rx="3"/><rect x="177.2" y="126.1" width="90.4" height="4.0" fill="#D3D8DF" rx="3"/><rect x="124.8" y="140.4" width="230.4" height="29.7" fill="#F8FAFC" stroke="#D7DDE5" stroke-width="1" rx="10"/><circle cx="142.8" cy="158.4" r="6" fill="#D0D6DE"/><rect x="156.8" y="153.2" width="165.8" height="6.0" fill="#D3D8DF" rx="3"/><rect x="156.8" y="158.5" width="135.6" height="4.0" fill="#D3D8DF" rx="3"/><rect x="138.8" y="156.5" width="178.1" height="4.0" fill="#D3D8DF" rx="3"/><rect x="138.8" y="158.5" width="145.7" height="4.0" fill="#D3D8DF" rx="3"/><rect x="86.4" y="172.8" width="307.2" height="29.7" fill="#F8FAFC" stroke="#D7DDE5" stroke-width="1" rx="10"/><circle cx="104.4" cy="190.8" r="6" fill="#D0D6DE"/><rect x="118.4" y="185.6" width="233.4" height="6.0" fill="#D3D8DF" rx="3"/><rect x="118.4" y="190.9" width="190.9" height="4.0" fill="#D3D8DF" rx="3"/><rect x="100.4" y="188.9" width="245.7" height="4.0" fill="#D3D8DF" rx="3"/><rect x="100.4" y="190.9" width="201.0" height="4.0" fill="#D3D8DF" rx="3"/><rect x="48.0" y="205.2" width="384.0" height="29.7" fill="#F8FAFC" stroke="#D7DDE5" stroke-width="1" rx="10"/><circle cx="66.0" cy="223.2" r="6" fill="#D0D6DE"/><rect x="80.0" y="218.0" width="301.0" height="6.0" fill="#D3D8DF" rx="3"/><rect x="80.0" y="223.3" width="246.2" height="4.0" fill="#D3D8DF" rx="3"/><rect x="62.0" y="221.3" width="313.3" height="4.0" fill="#D3D8DF" rx="3"/><rect x="62.0" y="223.3" width="256.3" height="4.0" fill="#D3D8DF" rx="3"/><rect x="312.0" y="75.6" width="144.0" height="162.0" fill="#F8FAFC" stroke="#D7DDE5" stroke-width="1" rx="10"/><circle cx="330.0" cy="93.6" r="6" fill="#D0D6DE"/><rect x="344.0" y="88.4" width="89.8" height="6.0" fill="#D3D8DF" rx="3"/><rect x="344.0" y="93.7" width="73.4" height="4.0" fill="#D3D8DF" rx="3"/><rect x="326.0" y="163.3" width="102.1" height="4.0" fill="#D3D8DF" rx="3"/><rect x="326.0" y="174.2" width="83.5" height="4.0" fill="#D3D8DF" rx="3"/></svg>