<svg xmlns="http://www.w3.org/2000/svg" viewBox="0 0 480 270" width="480" height="270"><rect width="100%" height="100%" fill="#FFFFFF"/><rect x="1.5" y="1.5" width="477" height="267" rx="18" fill="#FFFFFF" stroke="#DCE2EA" stroke-width="2"/><rect x="48.0" y="34.1" width="337.9" height="6.0" fill="#D3D8DF" rx="3"/><rect x="48.0" y="41.9" width="276.5" height="4.0" fill="#D3D8DF" rx="3"/><rect x="48.0" y="70.2" width="172.8" height="21.6" fill="#F8FAFC" stroke="#D7DDE5" stroke-width="1" rx="10"/><circle cx="66.0" cy="88.2" r="6" fill="#D0D6DE"/><rect x="80.0" y="83.0" width="115.1" height="6.0" fill="#D3D8DF" rx="3"/><rect x="80.0" y="88.3" width="94.2" height="4.0" fill="#D3D8DF" rx="3"/><rect x="62.0" y="81.9" width="127.4" height="4.0" fill="#D3D8DF" rx="3"/><rect x="62.0" y="83.4" width="104.3" height="4.0" fill="#D3D8DF" rx="3"/><rect x="48.0" y="97.2" width="172.8" height="140.4" fill="#F8FAFC" stroke="#D7DDE5" stroke-width="1" rx="10"/><circle cx="66.0" cy="115.2" r="6" fill="#D0D6DE"/><rect x="80.0" y="110.0" width="115.1" height="6.0" fill="#D3D8DF" rx="3"/><rect x="80.0" y="115.3" width="94.2" height="4.0" fill="#D3D8DF" rx="3"/><rect x="62.0" y="173.2" width="127.4" height="4.0" fill="#D3D8DF" rx="3"/><rect x="62.0" y="182.7" width="104.3" height="4.0" fill="#D3D8DF" rx="3"/><rect x="259.2" y="70.2" width="172.8" height="21.6" fill="#F8FAFC" stroke="#D7DDE5" stroke-width="1" rx="10"/><circle cx="277.2" cy="88.2" r="6" fill="#D0D6DE"/><rect x="291.2" y="83.0" width="115.1" height="6.0" fill="#D3D8DF" rx="3"/><rect x="291.2" y="88.3" width="94.2" height="4.0" fill="#D3D8DF" rx="3"/><rect x="273.2" y="81.9" width="127.4" height="4.0" fill="#D3D8DF" rx="3"/><rect x="273.2" y="83.4" width="104.3" height="4.0" fill="#D3D8DF" rx="3"/><rect x="259.2" y="97.2" width="172.8" height="140.4" fill="#F8FAFC" stroke="#D7DDE5" stroke-width="1" rx="10"/><circle cx="277.2" cy="115.2" r="6" fill="#D0D6DE"/><rect x="291.2" y="110.0" width="115.1" height="6.0" fill="#D3D8DF" rx="3"/><rect x="291.2" y="115.3" width="94.2" height="4.0" fill="#D3D8DF" rx="3"/><rect x="273.2" y="173.2" width="127.4" height="4.0" fill="#D3D8DF" rx="3"/><rect x="273.2" y="182.7" width="104.3" height="4.0" fill="#D3D8DF" rx="3"/></svg>