<svg xmlns="http://www.w3.org/2000/svg" viewBox="0 0 480 270" width="480" height="270"><rect width="100%" height="100%" fill="#FFFFFF"/><rect x="1.5" y="1.5" width="477" height="267" rx="18" fill="#FFFFFF" stroke="#DCE2EA" stroke-width="2"/><rect x="19.2" y="21.6" width="158.4" height="221.4" fill="#F8FAFC" stroke="#D7DDE5" stroke-width="1" rx="10"/><circle cx="37.2" cy="39.6" r="6" fill="#D0D6DE"/><rect x="51.2" y="34.4" width="102.4" height="6.0" fill="#D3D8DF" rx="3"/><rect x="51.2" y="39.7" width="83.8" height="4.0" fill="#D3D8DF" rx="3"/><rect x="33.2" y="141.5" width="114.8" height="4.0" fill="#D3D8DF" rx="3"/><rect x="33.2" y="156.4" width="93.9" height="4.0" fill="#D3D8DF" rx="3"/><rect x="196.8" y="21.6" width="86.4" height="221.4" fill="#F8FAFC" stroke="#D7DDE5" stroke-width="1" rx="10"/><circle cx="214.8" cy="39.6" r="6" fill="#D0D6DE"/><rect x="228.8" y="34.4" width="39.1" height="6.0" fill="#D3D8DF" rx="3"/><rect x="228.8" y="39.7" width="32.0" height="4.0" fill="#D3D8DF" rx="3"/><rect x="210.8" y="141.5" width="51.4" height="4.0" fill="#D3D8DF" rx="3"/><rect x="210.8" y="156.4" width="42.0" height="4.0" fill="#D3D8DF" rx="3"/><rect x="292.8" y="21.6" width="86.4" height="221.4" fill="#F8FAFC" stroke="#D7DDE5" stroke-width="1" rx="10"/><circle cx="310.8" cy="39.6" r="6" fill="#D0D6DE"/><rect x="324.8" y="34.4" width="39.1" height="6.0" fill="#D3D8DF" rx="3"/><rect x="324.8" y="39.7" width="32.0" height="4.0" fill="#D3D8DF" rx="3"/><rect x="306.8" y="141.5" width="51.4" height="4.0" fill="#D3D8DF" rx="3"/><rect x="306.8" y="156.4" width="42.0" height="4.0" fill="#D3D8DF" rx="3"/><rect x="384.0" y="21.6" width="81.6" height="221.4" fill="#F8FAFC" stroke="#D7DDE5" stroke-width="1" rx="10"/><circle cx="402.0" cy="39.6" r="6" fill="#D0D6DE"/><rect x="416.0" y="34.4" width="34.8" height="6.0" fill="#D3D8DF" rx="3"/><rect x="416.0" y="39.7" width="28.5" height="4.0" fill="#D3D8DF" rx="3"/><rect x="398.0" y="141.5" width="47.2" height="4.0" fill="#D3D8DF" rx="3"/><rect x="398.0" y="156.4" width="38.6" height="4.0" fill="#D3D8DF" rx="3"/></svg>