<svg xmlns="http://www.w3.org/2000/svg" viewBox="0 0 480 270" width="480" height="270"><rect width="100%" height="100%" fill="#FFFFFF"/><rect x="1.5" y="1.5" width="477" height="267" rx="18" fill="#FFFFFF" stroke="#DCE2EA" stroke-width="2"/><rect x="38" y="12" width="355" height="5.5" fill="#D3D8DF" rx="3"/><rect x="38" y="20" width="280" height="4" fill="#D3D8DF" rx="3"/><rect x="38" y="38" width="404" height="34" fill="#F8FAFC" stroke="#D7DDE5" stroke-width="1" rx="8"/><circle cx="59" cy="55" r="7" fill="#D0D6DE"/><rect x="76" y="50" width="295" height="6" fill="#D3D8DF" rx="3"/><rect x="76" y="59" width="235" height="4" fill="#D3D8DF" rx="3"/><rect x="38" y="79" width="404" height="34" fill="#F8FAFC" stroke="#D7DDE5" stroke-width="1" rx="8"/><circle cx="59" cy="96" r="7" fill="#D0D6DE"/><rect x="76" y="91" width="295" height="6" fill="#D3D8DF" rx="3"/><rect x="76" y="100" width="235" height="4" fill="#D3D8DF" rx="3"/><rect x="38" y="120" width="404" height="34" fill="#F8FAFC" stroke="#D7DDE5" stroke-width="1" rx="8"/><circle cx="59" cy="137" r="7" fill="#D0D6DE"/><rect x="76" y="132" width="295" height="6" fill="#D3D8DF" rx="3"/><rect x="76" y="141" width="235" height="4" fill="#D3D8DF" rx="3"/><rect x="38" y="161" width="404" height="34" fill="#F8FAFC" stroke="#D7DDE5" stroke-width="1" rx="8"/><circle cx="59" cy="178" r="7" fill="#D0D6DE"/><rect x="76" y="173" width="295" height="6" fill="#D3D8DF" rx="3"/><rect x="76" y="182" width="235" height="4" fill="#D3D8DF" rx="3"/><rect x="38" y="202" width="404" height="34" fill="#F8FAFC" stroke="#D7DDE5" stroke-width="1" rx="8"/><circle cx="59" cy="219" r="7" fill="#D0D6DE"/><rect x="76" y="214" width="295" height="6" fill="#D3D8DF" rx="3"/><rect x="76" y="223" width="235" height="4" fill="#D3D8DF" rx="3"/></svg>