<svg xmlns="http://www.w3.org/2000/svg" viewBox="0 0 480 270" width="480" height="270"><rect width="100%" height="100%" fill="#FFFFFF"/><rect x="1.5" y="1.5" width="477" height="267" rx="18" fill="#FFFFFF" stroke="#DCE2EA" stroke-width="2"/><rect x="19.2" y="16.2" width="153.6" height="237.6" fill="#F8FAFC" stroke="#D7DDE5" stroke-width="1" rx="10"/><circle cx="37.2" cy="34.2" r="6" fill="#D0D6DE"/><rect x="51.2" y="29.0" width="98.2" height="6.0" fill="#D3D8DF" rx="3"/><rect x="51.2" y="34.3" width="80.4" height="4.0" fill="#D3D8DF" rx="3"/><rect x="33.2" y="144.9" width="110.5" height="4.0" fill="#D3D8DF" rx="3"/><rect x="33.2" y="160.9" width="90.4" height="4.0" fill="#D3D8DF" rx="3"/><rect x="192.0" y="21.6" width="268.8" height="48.6" fill="#F8FAFC" stroke="#D7DDE5" stroke-width="1" rx="10"/><circle cx="210.0" cy="39.6" r="6" fill="#D0D6DE"/><rect x="224.0" y="34.4" width="199.6" height="6.0" fill="#D3D8DF" rx="3"/><rect x="224.0" y="39.7" width="163.3" height="4.0" fill="#D3D8DF" rx="3"/><rect x="206.0" y="47.9" width="211.9" height="4.0" fill="#D3D8DF" rx="3"/><rect x="206.0" y="51.2" width="173.4" height="4.0" fill="#D3D8DF" rx="3"/><rect x="192.0" y="78.3" width="268.8" height="48.6" fill="#F8FAFC" stroke="#D7DDE5" stroke-width="1" rx="10"/><circle cx="210.0" cy="96.3" r="6" fill="#D0D6DE"/><rect x="224.0" y="91.1" width="199.6" height="6.0" fill="#D3D8DF" rx="3"/><rect x="224.0" y="96.4" width="163.3" height="4.0" fill="#D3D8DF" rx="3"/><rect x="206.0" y="104.6" width="211.9" height="4.0" fill="#D3D8DF" rx="3"/><rect x="206.0" y="107.9" width="173.4" height="4.0" fill="#D3D8DF" rx="3"/><rect x="192.0" y="135.0" width="268.8" height="48.6" fill="#F8FAFC" stroke="#D7DDE5" stroke-width="1" rx="10"/><circle cx="210.0" cy="153.0" r="6" fill="#D0D6DE"/><rect x="224.0" y="147.8" width="199.6" height="6.0" fill="#D3D8DF" rx="3"/><rect x="224.0" y="153.1" width="163.3" height="4.0" fill="#D3D8DF" rx="3"/><rect x="206.0" y="161.3" width="211.9" height="4.0" fill="#D3D8DF" rx="3"/><rect x="206.0" y="164.6" width="173.4" height="4.0" fill="#D3D8DF" rx="3"/><rect x="192.0" y="191.7" width="268.8" height="48.6" fill="#F8FAFC" stroke="#D7DDE5" stroke-width="1" rx="10"/><circle cx="210.0" cy="209.7" r="6" fill="#D0D6DE"/><rect x="224.0" y="204.5" width="199.6" height="6.0" fill="#D3D8DF" rx="3"/><rect x="224.0" y="209.8" width="163.3" height="4.0" fill="#D3D8DF" rx="3"/><rect x="206.0" y="218.0" width="211.9" height="4.0" fill="#D3D8DF" rx="3"/><rect x="206.0" y="221.3" width="173.4" height="4.0" fill="#D3D8DF" rx="3"/></svg>