<!--
  project-icon: content.theme
  source.kind: project-authored
  recipe.family: palette
  semantic_tags: [theme, palette, color, visual-system]
  generator: svg-icon-generator-pilot-0.1
-->
<svg xmlns="http://www.w3.org/2000/svg" width="24" height="24" viewBox="0 0 24 24" fill="none" stroke="currentColor" stroke-width="2" stroke-linecap="round" stroke-linejoin="round" role="img" aria-label="Theme">
  <title>Theme</title>
  <path d="M4 13.5C4 8.2 7.8 4 12.5 4c4.4 0 7.5 3 7.5 6.5 0 2-1.2 3-3.2 3h-1.4c-.8 0-1.4.6-1.4 1.4 0 .4.2.8.5 1.1.4.4.5 1 .3 1.5-.5 1.4-2.1 2.1-3.8 2.1C7.3 19.6 4 17 4 13.5Z" />
  <circle cx="9" cy="9" r="1" />
  <circle cx="13" cy="7.5" r="1" />
  <circle cx="16.5" cy="10" r="1" />
</svg>
