<svg xmlns="http://www.w3.org/2000/svg" viewBox="0 0 1920 1080" aria-hidden="true">
  <g fill="none" stroke="#173F3A" stroke-linecap="round" stroke-linejoin="round">
    <path d="M0 58H1920M0 1022H1920" stroke-width="4"/>
    <path d="M0 70H255M1665 1010H1920" stroke="#D8A84E" stroke-width="8"/>
    <path d="M92 58v24m92-24v13m92-13v24M1644 1022v-24m92 24v-13m92 13v-24" stroke-width="3"/>
    <g opacity=".56">
      <path d="M1920 0c-136 42-242 118-298 231-31 62-47 134-45 215"/>
      <path d="M1858 20c-72 40-116 98-129 174-11 62 1 126 35 193"/>
      <path d="M1671 258c56-24 103-12 128 35-55 24-100 12-128-35Z"/>
      <path d="M1606 364c47-30 92-26 121 12-45 31-90 27-121-12Z"/>
      <path d="M1762 151c45-13 79 2 93 41-44 15-78 0-93-41Z"/>
      <path d="M0 1080c130-36 234-111 292-222 34-65 52-141 51-226"/>
      <path d="M56 1060c74-38 120-96 136-172 13-62 3-127-29-194"/>
      <path d="M251 828c-57 22-103 8-126-40 56-22 101-9 126 40Z"/>
      <path d="M319 725c-48 28-93 22-120-17 47-29 91-23 120 17Z"/>
      <path d="M160 936c-45 11-78-5-91-45 45-13 78 3 91 45Z"/>
    </g>
    <g stroke="#C76F55" stroke-width="5">
      <path d="M1817 356c20 24 31 53 31 86"/>
      <path d="M104 722c-19-25-29-55-28-88"/>
    </g>
  </g>
</svg>
